#!OML:ASF F:\VICON\USERDATA\INSTALL\rory3\rory3.ASF
:FULLY-SPECIFIED
:DEGREES
959
root 2.5024 16.4888 -22.0292 15.6345 2.81721 -362.359
lowerback -12.7981 2.0891 4.89389
upperback -11.0832 2.39644 0.776247
thorax -4.40464 0.943481 -1.71358
lowerneck -0.970497 -0.884148 -1.82139
upperneck 44.0087 -1.79913 2.25339
head 15.9123 -0.708149 1.12241
rclavicle 6.85807e-015 3.81667e-014
rhumerus 59.6924 -7.40294 -9.6148
rradius 78.3983
rwrist -6.14617
rhand 16.6158 -0.778602
rfingers 7.12502
rthumb 41.3703 -25.5761
lclavicle 6.85807e-015 3.81667e-014
lhumerus 57.84 0.800093 4.42152
lradius 81.1413
lwrist -10.7041
lhand 4.00415 20.27
lfingers 7.12502
lthumb 29.4197 47.9608
rfemur -17.5386 7.59461 33.7434
rtibia 25.2944
rfoot -39.4799 -33.0801
rtoes 36.1278
lfemur 113.033 169.98 152.072
ltibia 38.1369
lfoot -1.66954 45.1473
ltoes 24.9321
960
root 2.50944 16.4872 -22.0257 15.7387 2.92196 -362.267
lowerback -13.7763 2.25695 4.4722
upperback -11.5494 2.6143 0.718023
thorax -4.38897 1.07472 -1.49413
lowerneck 0.479471 -1.05188 -1.86973
upperneck 43.944 -2.05594 2.28426
head 15.554 -0.823724 1.11868
rclavicle -3.13086e-015 -1.55052e-014
rhumerus 56.5185 -5.99619 -6.31307
rradius 81.9996
rwrist -2.46456
rhand 15.9836 -0.432663
rfingers 7.12502
rthumb 40.7766 -25.4196
lclavicle -3.13086e-015 -1.55052e-014
lhumerus 55.5413 -1.04628 2.99559
lradius 84.4011
lwrist -16.4773
lhand 2.75721 19.5397
lfingers 7.12502
lthumb 28.2285 47.4335
rfemur -17.6185 7.90445 33.5988
rtibia 25.3244
rfoot -39.8246 -33.0769
rtoes 36.2415
lfemur 113.275 170.103 152.129
ltibia 37.8649
lfoot 0.610651 44.629
ltoes 23.732
961
root 2.51677 16.4893 -22.0231 15.9318 2.83038 -362.186
lowerback -14.4055 2.23236 4.10236
upperback -11.7824 2.59214 0.859457
thorax -4.33003 1.09266 -1.12423
lowerneck 0.0837827 -1.00556 -2.11227
upperneck 44.2136 -1.86228 2.07207
head 15.7877 -0.802358 1.09613
rclavicle 1.63997e-014 3.02153e-014
rhumerus 54.1814 -4.91209 -3.78467
rradius 85.5624
rwrist 0.824213
rhand 14.8866 -0.119808
rfingers 7.12502
rthumb 39.7449 -25.4223
lclavicle 1.63997e-014 3.02153e-014
lhumerus 52.4153 -2.39202 1.86736
lradius 87.6368
lwrist -22.0019
lhand 0.891463 18.7193
lfingers 7.12502
lthumb 26.444 46.8945
rfemur -17.849 7.92367 33.423
rtibia 25.4057
rfoot -40.009 -32.6504
rtoes 36.8637
lfemur 113.446 170.062 152.122
ltibia 37.5897
lfoot -0.313034 43.9464
ltoes 25.6727
962
root 2.52395 16.4895 -22.0257 16.1733 2.78347 -362.135
lowerback -14.3699 2.26498 4.06006
upperback -12.4901 2.6658 0.750501
thorax -5.12629 1.10711 -1.22226
lowerneck -0.126522 -0.932583 -2.24866
upperneck 44.7214 -1.7374 2.0978
head 16.1214 -0.766993 1.15531
rclavicle 5.96354e-015 1.19271e-014
rhumerus 51.4392 -3.09042 -1.85715
rradius 89.363
rwrist 3.76888
rhand 13.255 -0.091905
rfingers 7.12502
rthumb 38.2067 -25.8346
lclavicle 5.96354e-015 1.19271e-014
lhumerus 49.2587 -4.57101 0.590111
lradius 90.8384
lwrist -26.9868
lhand -2.4005 18.531
lfingers 7.12502
lthumb 23.2892 47.1425
rfemur -18.1595 7.92609 33.2876
rtibia 25.5144
rfoot -40.3398 -32.0887
rtoes 37.5547
lfemur 113.509 170.079 152.137
ltibia 37.3323
lfoot -1.45458 43.4246
ltoes 26.4028
963
root 2.52916 16.4872 -22.0379 16.5073 2.8239 -362.087
lowerback -14.903 2.60147 3.78691
upperback -13.1633 3.12589 0.387463
thorax -5.56524 1.33153 -1.40083
lowerneck 0.49215 -1.2535 -1.79452
upperneck 44.8394 -2.28967 2.10037
head 16.0584 -0.922137 1.01194
rclavicle 2.10712e-014 4.59193e-014
rhumerus 47.4598 -1.13443 0.382341
rradius 93.3348
rwrist 6.64749
rhand 10.8067 -0.212874
rfingers 7.12502
rthumb 35.891 -26.5561
lclavicle 2.10712e-014 4.59193e-014
lhumerus 47.1001 -6.90898 -0.309183
lradius 93.7685
lwrist -31.194
lhand -6.36791 18.62
lfingers 7.12502
lthumb 19.4787 47.6643
rfemur -18.6466 8.01684 33.162
rtibia 25.647
rfoot -40.4714 -31.8806
rtoes 37.844
lfemur 113.374 170.219 152.144
ltibia 37.0683
lfoot -0.00245473 42.959
ltoes 25.5419
964
root 2.53796 16.4828 -22.0483 16.8115 2.75821 -362.186
lowerback -15.2282 2.36319 3.58093
upperback -13.374 2.83347 0.848852
thorax -5.67692 1.2184 -0.8207
lowerneck -0.833547 -0.976327 -2.41222
upperneck 45.2441 -1.67804 1.89994
head 16.5905 -0.785993 1.11201
rclavicle -2.40529e-014 6.16232e-015
rhumerus 45.5499 -0.0231241 2.1864
rradius 97.1097
rwrist 9.02078
rhand 7.98739 -0.00633901
rfingers 7.12502
rthumb 33.215 -26.9609
lclavicle -2.40529e-014 6.16232e-015
lhumerus 42.7292 -8.35057 -0.803954
lradius 96.4582
lwrist -34.9868
lhand -10.4135 18.3695
lfingers 7.12502
lthumb 15.5854 47.7615
rfemur -19.0965 8.09542 33.1726
rtibia 25.7813
rfoot -40.477 -31.6349
rtoes 38.2127
lfemur 113.192 170.216 152.262
ltibia 36.8255
lfoot 2.26841 42.7726
ltoes 25.2378
965
root 2.54815 16.4779 -22.0527 17.1091 2.63839 -362.322
lowerback -15.6702 2.56876 3.5315
upperback -13.8129 3.10033 0.735343
thorax -5.92701 1.34614 -0.877421
lowerneck -1.07362 -1.14754 -2.1562
upperneck 45.3743 -1.9197 1.75332
head 16.7282 -0.85968 0.968672
rclavicle 2.88238e-015 -1.19271e-015
rhumerus 42.1208 1.49848 3.50991
rradius 100.921
rwrist 10.3921
rhand 5.62819 0.690757
rfingers 7.12502
rthumb 30.969 -26.7166
lclavicle 2.88238e-015 -1.19271e-015
lhumerus 39.7171 -10.1699 -1.03906
lradius 98.7207
lwrist -38.2131
lhand -14.52 17.7132
lfingers 7.12502
lthumb 11.6277 47.3706
rfemur -19.456 8.12749 33.2137
rtibia 25.8331
rfoot -40.6475 -31.011
rtoes 38.9096
lfemur 112.976 170.148 152.402
ltibia 36.6918
lfoot 3.99492 42.7089
ltoes 26.0505
966
root 2.55832 16.4767 -22.0549 17.4657 2.53981 -362.424
lowerback -15.9698 2.55951 3.48664
upperback -14.2475 3.09404 0.793859
thorax -6.27111 1.3419 -0.788779
lowerneck -1.76592 -1.07407 -2.20184
upperneck 45.578 -1.73027 1.61043
head 17.0118 -0.804155 0.936667
rclavicle 2.22639e-014 2.46493e-014
rhumerus 39.2012 2.99815 4.2732
rradius 104.588
rwrist 11.5402
rhand 3.24141 1.65825
rfingers 7.12502
rthumb 28.6912 -26.1582
lclavicle 2.22639e-014 2.46493e-014
lhumerus 35.9892 -11.9049 -1.25693
lradius 100.656
lwrist -40.5706
lhand -18.3895 17.088
lfingers 7.12502
lthumb 7.89438 46.9206
rfemur -19.8015 8.08717 33.2301
rtibia 25.7587
rfoot -40.5164 -30.702
rtoes 38.8686
lfemur 112.643 170.108 152.509
ltibia 36.7064
lfoot 2.99215 42.0314
ltoes 23.7882
967
root 2.57753 16.4852 -22.0442 17.7508 2.11771 -362.794
lowerback -16.2198 2.75551 3.83113
upperback -14.7117 3.31795 0.829016
thorax -6.65501 1.41761 -0.918898
lowerneck -2.19464 -0.994221 -2.18895
upperneck 45.4606 -1.59029 1.58351
head 17.0415 -0.746689 0.937721
rclavicle -6.4605e-015 3.12092e-014
rhumerus 35.9791 4.81484 4.91833
rradius 107.988
rwrist 12.4184
rhand -0.165176 2.74733
rfingers 7.12502
rthumb 25.4322 -25.5761
lclavicle -6.4605e-015 3.12092e-014
lhumerus 32.2335 -13.6149 -1.35647
lradius 102.273
lwrist -42.0667
lhand -22.0404 15.7101
lfingers 7.12502
lthumb 4.3698 45.645
rfemur -20.0038 7.64106 33.4851
rtibia 25.6624
rfoot -39.6668 -30.3308
rtoes 38.0615
lfemur 112.335 169.678 152.768
ltibia 36.8244
lfoot 4.26056 41.631
ltoes 22.1744
968
root 2.59209 16.4856 -22.0437 18.0246 1.75857 -363.224
lowerback -16.1757 2.92307 4.13575
upperback -15.3583 3.53497 0.866807
thorax -7.41241 1.48281 -1.043
lowerneck -1.86961 -1.00525 -2.07532
upperneck 44.8861 -1.64395 1.59736
head 16.6198 -0.751965 0.90868
rclavicle -1.59525e-014 -2.00773e-014
rhumerus 32.4674 7.03286 5.32865
rradius 111.084
rwrist 13.0651
rhand -4.0044 4.39816
rfingers 7.12502
rthumb 21.7497 -24.3999
lclavicle -1.59525e-014 -2.00773e-014
lhumerus 28.4183 -15.4773 -1.16465
lradius 103.713
lwrist -43.0512
lhand -25.5098 14.1852
lfingers 7.12502
lthumb 1.01923 44.1625
rfemur -20.2057 7.48372 33.8176
rtibia 25.5378
rfoot -39.0416 -30.0672
rtoes 37.5238
lfemur 111.938 169.288 153.092
ltibia 37.0066
lfoot 5.04641 41.6519
ltoes 21.3835
